<mxfile host="app.diagrams.net" agent="Mozilla/5.0 (Windows NT 10.0; Win64; x64) AppleWebKit/537.36 (KHTML, like Gecko) Chrome/129.0.0.0 Safari/537.36 Edg/129.0.0.0" version="24.7.17">
  <diagram name="Page-1" id="tB6fP3fhG_fLYy5JBvAa">
    <mxGraphModel dx="1042" dy="565" grid="1" gridSize="10" guides="1" tooltips="1" connect="1" arrows="1" fold="1" page="1" pageScale="1" pageWidth="850" pageHeight="1100" math="0" shadow="0">
      <root>
        <mxCell id="0" />
        <mxCell id="1" parent="0" />
        <mxCell id="20MSN_aKqXDfy-MP3mco-20" style="edgeStyle=orthogonalEdgeStyle;rounded=0;orthogonalLoop=1;jettySize=auto;html=1;entryX=0.5;entryY=0;entryDx=0;entryDy=0;" parent="1" source="20MSN_aKqXDfy-MP3mco-10" target="20MSN_aKqXDfy-MP3mco-11" edge="1">
          <mxGeometry relative="1" as="geometry" />
        </mxCell>
        <mxCell id="20MSN_aKqXDfy-MP3mco-10" value="&lt;font style=&quot;font-size: 15px;&quot;&gt;Begin&lt;/font&gt;" style="rounded=1;whiteSpace=wrap;html=1;fontStyle=0;fontFamily=Times New Roman;fontSize=15;" parent="1" vertex="1">
          <mxGeometry x="317.5" y="10" width="242.5" height="120" as="geometry" />
        </mxCell>
        <mxCell id="20MSN_aKqXDfy-MP3mco-15" style="edgeStyle=orthogonalEdgeStyle;rounded=0;orthogonalLoop=1;jettySize=auto;html=1;" parent="1" source="20MSN_aKqXDfy-MP3mco-11" target="20MSN_aKqXDfy-MP3mco-12" edge="1">
          <mxGeometry relative="1" as="geometry" />
        </mxCell>
        <mxCell id="20MSN_aKqXDfy-MP3mco-11" value="&lt;font style=&quot;font-size: 15px;&quot;&gt;Input Eggs&lt;/font&gt;" style="rounded=1;whiteSpace=wrap;html=1;fontStyle=0;fontFamily=Times New Roman;" parent="1" vertex="1">
          <mxGeometry x="318.75" y="180" width="240" height="110" as="geometry" />
        </mxCell>
        <mxCell id="20MSN_aKqXDfy-MP3mco-16" style="edgeStyle=orthogonalEdgeStyle;rounded=0;orthogonalLoop=1;jettySize=auto;html=1;entryX=0.5;entryY=0;entryDx=0;entryDy=0;" parent="1" source="20MSN_aKqXDfy-MP3mco-12" target="20MSN_aKqXDfy-MP3mco-13" edge="1">
          <mxGeometry relative="1" as="geometry" />
        </mxCell>
        <mxCell id="20MSN_aKqXDfy-MP3mco-12" value="&lt;span style=&quot;font-size: 15px;&quot;&gt;Dozens=(Eggs//10)*10&lt;/span&gt;" style="rounded=1;whiteSpace=wrap;html=1;fontStyle=0;fontFamily=Times New Roman;" parent="1" vertex="1">
          <mxGeometry x="318.75" y="340" width="240" height="120" as="geometry" />
        </mxCell>
        <mxCell id="20MSN_aKqXDfy-MP3mco-17" style="edgeStyle=orthogonalEdgeStyle;rounded=0;orthogonalLoop=1;jettySize=auto;html=1;" parent="1" source="20MSN_aKqXDfy-MP3mco-13" target="20MSN_aKqXDfy-MP3mco-14" edge="1">
          <mxGeometry relative="1" as="geometry" />
        </mxCell>
        <mxCell id="20MSN_aKqXDfy-MP3mco-13" value="&lt;span style=&quot;font-size: 15px;&quot;&gt;Excess=Eggs-Dozens&lt;/span&gt;" style="rounded=1;whiteSpace=wrap;html=1;fontStyle=0;fontFamily=Times New Roman;" parent="1" vertex="1">
          <mxGeometry x="318.75" y="520" width="240" height="120" as="geometry" />
        </mxCell>
        <mxCell id="20MSN_aKqXDfy-MP3mco-14" value="&lt;font style=&quot;font-size: 15px;&quot;&gt;Print Dozens&lt;/font&gt;&lt;div&gt;&lt;font style=&quot;font-size: 15px;&quot;&gt;&lt;br&gt;&lt;/font&gt;&lt;/div&gt;&lt;div&gt;&lt;font style=&quot;font-size: 15px;&quot;&gt;Print Excess&lt;/font&gt;&lt;/div&gt;" style="rounded=1;whiteSpace=wrap;html=1;fontStyle=0;fontFamily=Times New Roman;" parent="1" vertex="1">
          <mxGeometry x="318.75" y="700" width="240" height="120" as="geometry" />
        </mxCell>
        <mxCell id="zWptrEJXbx7cKJd22i3s-1" value="&lt;font style=&quot;font-size: 15px;&quot;&gt;End.&lt;/font&gt;" style="rounded=1;whiteSpace=wrap;html=1;fontStyle=0;fontFamily=Times New Roman;" vertex="1" parent="1">
          <mxGeometry x="317.5" y="880" width="240" height="120" as="geometry" />
        </mxCell>
      </root>
    </mxGraphModel>
  </diagram>
</mxfile>
